<?xml version="1.0" encoding="utf-8"?>
<!-- Generator: Adobe Illustrator 26.0.3, SVG Export Plug-In . SVG Version: 6.00 Build 0)  -->
<svg version="1.1" id="Calque_1" xmlns="http://www.w3.org/2000/svg" xmlns:xlink="http://www.w3.org/1999/xlink" x="0px" y="0px"
	 viewBox="0 0 2500 2500" style="enable-background:new 0 0 2500 2500;" xml:space="preserve">
<style type="text/css">
	.st0{fill:none;}
	.st1{fill:#FFFFFF;stroke:#000000;stroke-miterlimit:10;}
</style>
<g>
	<polygon class="st0" points="981.3,1587.7 1089.6,1587.7 1037.1,1407.2 	"/>
	<polygon class="st0" points="1380.4,1030.4 1488.7,1030.4 1436.2,849.9 	"/>
	<path class="st0" d="M2049.8,849.9h-112.5v88.6h112.5C2110.3,938.5,2101.4,849.9,2049.8,849.9z"/>
	<polygon class="st1" points="632.2,1279.8 583,1443.8 533.8,1279.8 343.4,1279.8 300.8,1443.8 254.8,1279.8 73.5,1279.8 
		218.7,1772 366.4,1772 437.7,1539 500.9,1772 645.3,1772 789.7,1279.8 	"/>
	<path class="st1" d="M1937.3,1053.4c0,0,75.5,88.6,114.8,124.7c39.4,36.1,42.7,39.4,96.1,39.4h278.2v-164.1c0,0-153.5,0-215.8,0
		l0,0l0,0c-62.3,0-62.3-23-62.3-23c53.4,0,100.8-77.8,100.8-157.5s-77.8-147.6-140.2-147.6h-348.8v492.1h177.2V1053.4z
		 M1937.3,849.9h112.5c51.6,0,60.5,88.6,0,88.6h-112.5V849.9z"/>
	<path class="st1" d="M680.5,1080.5c0-34.3,13.1-56.7-27.2-102.1l-61.4-72.7c-35.2-32.8,4.2-32.8,33.7-32.8h202.6v344.6H989V872.9
		h216.6V725.3H504.2c-85.3,0-127.1,81.9-124.7,124.6c2.4,42.7,10.2,96.3,81.1,160.8c64.7,58.8-32,42.7-41.7,42.7H73.5v164.1h479.9
		C609.2,1217.4,680.5,1165.8,680.5,1080.5z"/>
	<path class="st1" d="M2426.5,1427.5v-147.7h-331.6c-85.3,0-122.2,85.5-119.8,128.2s10.2,96.3,81.1,160.8
		c64.7,58.8-32,42.7-41.7,42.7c0,0-151.6-0.2-191-0.2c-39.4,0-62.9-23.6-62.9-23.6c53.4,0,100.8-77.8,100.8-157.5
		c0-79.7-77.8-147.6-140.2-147.6h-348.8v492.1h177.2v-164.1c0,0,75.5,88.6,114.8,124.7c39.4,36.1,42.7,39.4,96.1,39.4l387.7-2.6
		c55.8,0,140.2-51.6,140.2-136.9c0-34.3,0.6-53.3-39.7-98.7l-61.4-72.7c-35.2-32.8-3-36.3,26.5-36.3l0,0v0H2426.5z M1662.1,1495.7
		h-112.5v-88.6h112.5C1713.7,1407.1,1722.6,1495.7,1662.1,1495.7z"/>
	<path class="st1" d="M902.6,1282.6l-145.3,492.1H919l26.3-68.9h170.6l25.3,68.9h158.4l-137.8-492.1H902.6z M981.3,1587.7
		l55.8-180.5l52.5,180.5H981.3z"/>
	<path class="st1" d="M1540.3,1217.4h158.4l-137.8-492.1h-259.2l-145.3,492.1h161.7l26.2-68.9h170.6L1540.3,1217.4z M1380.4,1030.4
		l55.8-180.5l52.5,180.5H1380.4z"/>
</g>
</svg>
