<?xml version="1.0" encoding="UTF-8"?>
<svg width="700pt" height="700pt" version="1.1" viewBox="0 0 700 700" xmlns="http://www.w3.org/2000/svg">
 <g>
  <path d="m679.39 10.555c-14.074-14.074-36.883-14.074-50.957 0l-282.32 282.33-274.55-274.56c-14.074-14.074-36.883-14.074-50.957 0-14.059 14.066-14.059 36.879 0 50.945l325.51 325.5 333.28-333.27c14.062-14.066 14.062-36.879 0-50.945z"/>
  <path d="m628.44 175.79-282.32 282.33-274.55-274.59c-14.074-14.074-36.895-14.074-50.945 0-14.074 14.066-14.074 36.879-0.011719 50.945l325.51 325.53 333.28-333.27c14.059-14.066 14.059-36.879 0-50.945-14.07-14.074-36.879-14.074-50.953 0z"/>
 </g>
</svg>
