<svg id="Calque_1" data-name="Calque 1" xmlns="http://www.w3.org/2000/svg" viewBox="0 0 50 50"><path id="Tracé_19" data-name="Tracé 19" d="M48,47.54c-.37.16-.4-.2-.5-.37Q44.45,42,41.41,36.78c-.12-.2-.35-.41-.19-.66s.45-.11.68-.07c1.26.23,2.52.49,3.78.73a1.75,1.75,0,0,0,1.11,0L40,28a1.23,1.23,0,0,1-.16-1,13.55,13.55,0,0,0,0-3.92,1.26,1.26,0,0,1,.15-1q3.42-4.39,6.82-8.8a6.14,6.14,0,0,0-2.48.3c-.73.1-1.45.3-2.18.42-.3,0-.7.27-.91-.05s.14-.55.28-.8l4.66-7.94c.47-.8.94-1.61,1.42-2.4.1-.18.15-.43.44-.43V2.18c0-.14,0-.19-.17-.16h-.33c.16.32-.15.37-.3.46L36.27,8.91a3.12,3.12,0,0,1-.43.15c.32-1.63.62-3.17.91-4.71a1.69,1.69,0,0,0,0-1.11L28,10.05a1.14,1.14,0,0,1-.93.17,13,13,0,0,0-4.08,0,1.56,1.56,0,0,1-1.27-.41q-3.88-3-7.79-6c-.24-.18-.49-.34-.74-.51a31.14,31.14,0,0,0,.72,4.39c.06.4.15.8.24,1.26a1.17,1.17,0,0,1-.76-.28Q8.19,5.66,3,2.6c-.22-.13-.63-.14-.52-.58-.41-.08-.58.08-.5.49.42-.13.43.26.55.46q3,5.11,6,10.26c.13.22.42.48.21.73S8.25,14,8,14l-4.65-.9a1.28,1.28,0,0,0,.42.8c2,2.61,4,5.23,6,7.82a1.73,1.73,0,0,1,.41,1.43,12.36,12.36,0,0,0,0,3.84A1.32,1.32,0,0,1,10,28.06q-3.42,4.36-6.79,8.76a8.05,8.05,0,0,0,2.72-.36c.78-.1,1.56-.29,2.34-.43.17,0,.39-.11.52.08s0,.37-.11.53L2.41,47.31c-.08.14-.15.39-.42.23-.08.41.09.58.5.5-.16-.33.15-.37.31-.46q5.48-3.24,11-6.44a1.86,1.86,0,0,1,.31-.1c-.05,1-.37,2-.5,3a9.15,9.15,0,0,0-.38,2.8L22,40.05a1.19,1.19,0,0,1,1-.21,14,14,0,0,0,4.08,0,1.22,1.22,0,0,1,1,.21l8.57,6.6a.75.75,0,0,1,.15.16,1.54,1.54,0,0,0,0-1.1c-.29-1.53-.59-3.05-.89-4.6.32-.09.5.09.69.2,3.49,2,7,4.09,10.45,6.15.21.12.62.14.51.58.41.08.58-.08.5-.49M25.36,37.78a12.76,12.76,0,1,1,12.4-13.12,12.76,12.76,0,0,1-12.4,13.12"/><path id="Tracé_23" data-name="Tracé 23" d="M25,15.7a9.33,9.33,0,1,0,9.3,9.36h0A9.37,9.37,0,0,0,25,15.7"/></svg>