<svg id="Calque_1" data-name="Calque 1" xmlns="http://www.w3.org/2000/svg" viewBox="0 0 50 50"><g id="Groupe_12" data-name="Groupe 12"><path id="Tracé_13" data-name="Tracé 13" d="M25.83,33.55l3.29-4.8L27,34.56l6.55.95-6.55,1,2.54,5-3.61-3.79.23,9s16.16-7.5,7.18-24.09c0,0,11.2-12.36,1.06-20,0,0,17.33,10.46,6.34,28.42,0,0,9.08-8.87,4.33-17.85,0,0,8.24,11.62-1.8,24.4,0,0,2.75-1.69,5.18-8.13,0,0-1.77,19.18-23.24,19.43h-.42C3.32,48.57,1.55,29.38,1.55,29.38,4,35.83,6.72,37.52,6.72,37.52c-10-12.78-1.79-24.41-1.79-24.41C.17,22.09,9.26,31,9.26,31-1.73,13,15.6,2.55,15.6,2.55c-10.14,7.61,1.06,20,1.06,20-9,16.58,7.18,24.09,7.18,24.09s.05-1.78.23-9l-3.61,3.8,2.54-5-6.55-1L23,34.56l-2.12-5.81,3.3,4.8c.23-9.19.81-32,.82-32.12v0c0,.18.58,23,.82,32.12"/></g></svg>