<?xml version="1.0" encoding="utf-8"?>
<!-- Svg Vector Icons : http://www.onlinewebfonts.com/icon -->
<!DOCTYPE svg PUBLIC "-//W3C//DTD SVG 1.1//EN" "http://www.w3.org/Graphics/SVG/1.1/DTD/svg11.dtd">
<svg version="1.1" xmlns="http://www.w3.org/2000/svg" xmlns:xlink="http://www.w3.org/1999/xlink" x="0px" y="0px" viewBox="0 0 1000 1000" enable-background="new 0 0 1000 1000" xml:space="preserve">
<metadata> Svg Vector Icons : http://www.onlinewebfonts.com/icon </metadata>
<g><path d="M185.5,768.7h-0.1c-22.7-0.3-45.9-4.8-68-14.6l0,0C50.1,725,10,659.4,10,590.6l0,0c0-23.7,4.8-47.7,14.8-70.8l0,0c29.2-67.1,94.8-107.2,163.6-107.1l0,0c0.6,0,1.2,0,1.8,0l0,0c3-12.9,7.3-25.8,12.7-38.4l0,0C241.8,284.6,329.2,231,421,231l0,0c31.5,0,63.6,6.4,94.4,19.7l0,0c64.2,28,109.8,81.1,130.6,142.6l0,0c17.5-5.2,36-8,54.5-8l0,0c25.5,0,51.3,5.1,75.9,15.9l0,0C836,427,875.7,479.5,888,538.5l0,0c10.9,1.2,22.1,3.8,32.9,8.5l0,0l0,0h0.1c43.1,18.9,69.1,61.1,68.9,105.4l0,0c0.1,15.2-3,30.8-9.5,45.6l0,0c-17.1,39-52.8,66.6-94.3,70.7l0,0L885,769L185.5,768.7L185.5,768.7z M883,723c22.5-2.5,44.9-19.2,55.4-43.3l0,0c4-9,5.6-18.2,5.6-27.3l0,0c0-26.6-15.6-52-41.4-63.3l0,0l0,0c-8.6-3.6-17.4-5.2-26.4-5.2l0,0c-2.1,0-4.3,0-6.1,0.1l0,0l-22.7,2l-2.1-22.6c-4.9-51.3-36.8-98.2-87.3-120.2l0,0c-18.8-8.2-38.3-12.1-57.5-12.1l0,0c-20.9,0-41.7,4.6-60.6,13.2l0,0l-26,11.9l-5.9-27.9c-12.7-58.4-52-110-111-135.6l0,0c-24.9-10.7-50.6-15.8-76-15.8l0,0c-74.1,0-144.6,43.1-175.9,115.5l0,0c-6.7,15.6-11,31.5-13.5,47.9l0,0l-3.3,22.4l-22.4-3c-5.9-0.8-11.7-1.2-17.5-1.2l0,0c-51.1,0-99.8,29.6-121.4,79.4l0,0c-7.5,17.3-11,35.1-11,52.6l0,0c0,51.2,29.8,99.8,79.6,121.5l0,0c17.1,7.4,34.7,10.7,52.2,10.7l0,0h0.2c0.3,0,0.6,0,1,0l0,0L883,723L883,723z"/></g>
</svg>