<?xml version="1.0" encoding="utf-8"?>
<!-- Generator: Adobe Illustrator 25.4.1, SVG Export Plug-In . SVG Version: 6.00 Build 0)  -->
<svg version="1.1" id="Calque_1" xmlns="http://www.w3.org/2000/svg" xmlns:xlink="http://www.w3.org/1999/xlink" x="0px" y="0px"
	 viewBox="0 0 512 512" enable-background="new 0 0 512 512" xml:space="preserve">
<g>
	<g>
		<line fill="none" stroke="#000000" stroke-miterlimit="10" x1="94.8" y1="255.8" x2="403.2" y2="255.8"/>
		<g>
			<polygon points="400.3,265.8 417.6,255.8 400.3,245.8 			"/>
		</g>
	</g>
</g>
<g>
	<g>
		<line fill="none" stroke="#000000" stroke-miterlimit="10" x1="256.1" y1="94.5" x2="256.1" y2="402.9"/>
		<g>
			<polygon points="246.1,400 256.1,417.2 266,400 			"/>
		</g>
	</g>
</g>
<g>
	<g>
		<path d="M448.9,236.7c3.6,0,6.3,1.5,8.1,4.4c1.8,2.9,2.7,7.2,2.7,12.6c0,5.5-0.9,9.7-2.7,12.7c-1.8,3-4.5,4.4-8.1,4.4
			c-3.6,0-6.2-1.5-8.1-4.4s-2.7-7.2-2.7-12.7c0-5.5,0.9-9.7,2.7-12.6C442.6,238.1,445.3,236.7,448.9,236.7z M448.9,239.9
			c-2,0-3.6,1.1-4.8,3.2s-1.8,5.7-1.8,10.6c0,3.3,0.2,6,0.7,8c0.5,2,1.2,3.5,2.1,4.4c1,0.9,2.2,1.4,3.7,1.4c1.4,0,2.6-0.5,3.5-1.4
			c1-0.9,1.7-2.4,2.3-4.5c0.5-2,0.8-4.7,0.8-7.9c0-3.3-0.2-6-0.7-8s-1.2-3.5-2.1-4.4C451.7,240.4,450.4,239.9,448.9,239.9z
			 M453.7,241.1l1.1,3.5l-10.5,21.3l-1.5-2.8L453.7,241.1z"/>
	</g>
</g>
<g>
	<g>
		<path d="M259.7,439.6v32.1h-4v-27.7l-7.6,4.6l-1.8-2.9l9.8-6.1H259.7z M266.6,469.3v3.3h-19.1v-3.3H266.6z"/>
	</g>
</g>
<g>
	<g>
		<path d="M64.6,236.7c2.1,0,3.9,0.4,5.3,1.2c1.5,0.8,2.6,1.9,3.4,3.3c0.8,1.4,1.2,3,1.2,4.7c0,1.5-0.3,3-0.8,4.5
			c-0.5,1.4-1.4,3-2.5,4.6c-1.2,1.6-2.7,3.4-4.6,5.3c-1.9,1.9-4.2,4.1-6.9,6.6h15.6l-0.5,3.4H55.1V267c2.5-2.4,4.6-4.5,6.4-6.3
			s3.2-3.4,4.3-4.7c1.1-1.4,2-2.6,2.7-3.7c0.6-1.1,1.1-2.2,1.4-3.2s0.4-2,0.4-3.1c0-1.9-0.5-3.3-1.6-4.4c-1-1.1-2.5-1.6-4.3-1.6
			c-1.6,0-3,0.3-4,0.8c-1,0.6-2.1,1.5-3.1,2.7l-2.8-2.2c1.3-1.6,2.8-2.8,4.4-3.6C60.4,237.1,62.3,236.7,64.6,236.7z"/>
	</g>
</g>
<g>
	<g>
		<path d="M254.7,43.8c2.1,0,3.9,0.4,5.4,1.1c1.5,0.7,2.7,1.7,3.5,3c0.8,1.3,1.2,2.6,1.2,4.1c0,1.3-0.3,2.5-0.9,3.6
			c-0.6,1.1-1.4,2-2.4,2.7s-2,1.2-3.2,1.4c1.3,0.1,2.5,0.5,3.6,1.1c1.1,0.6,2.1,1.5,2.8,2.7c0.7,1.2,1.1,2.6,1.1,4.3
			c0,1.9-0.5,3.6-1.4,5.1s-2.3,2.7-4,3.6s-3.7,1.3-6,1.3c-1.8,0-3.7-0.4-5.5-1.1c-1.8-0.7-3.4-1.8-4.6-3.4l2.7-2.2
			c0.9,1.1,2.1,1.9,3.4,2.5c1.3,0.5,2.6,0.8,4,0.8c2.3,0,4.1-0.6,5.4-1.8c1.3-1.2,1.9-2.9,1.9-4.9c0-1.6-0.3-2.8-0.9-3.7
			c-0.6-0.9-1.4-1.6-2.4-2c-1-0.4-2.2-0.6-3.5-0.6h-2.8l0.5-3.2h1.9c1.1,0,2.1-0.2,3-0.6c1-0.4,1.7-1,2.3-1.9
			c0.6-0.9,0.9-1.9,0.9-3.2c0-1.8-0.6-3.2-1.8-4.2s-2.7-1.4-4.4-1.4c-1.4,0-2.7,0.3-3.8,0.8c-1.1,0.5-2.2,1.3-3.2,2.3l-2.2-2.5
			c1.4-1.3,2.9-2.3,4.5-2.9C251.4,44.1,253,43.8,254.7,43.8z"/>
	</g>
</g>
<rect x="221.3" y="220.8" width="69.6" height="69.6"/>
<g>
	<g>
		<line fill="none" stroke="#FFFFFF" stroke-miterlimit="10" x1="228.7" y1="255.6" x2="269.1" y2="255.6"/>
		<g>
			<polygon fill="#FFFFFF" points="266.2,265.6 283.4,255.6 266.2,245.7 			"/>
		</g>
	</g>
</g>
</svg>
