<?xml version="1.0" encoding="utf-8"?>
<!-- Generator: Adobe Illustrator 22.1.0, SVG Export Plug-In . SVG Version: 6.00 Build 0)  -->
<svg version="1.1" id="Calque_1" xmlns="http://www.w3.org/2000/svg" xmlns:xlink="http://www.w3.org/1999/xlink" x="0px" y="0px"
	 viewBox="0 0 371 371" style="enable-background:new 0 0 371 371;" xml:space="preserve">
<path d="M286,309.2H85c-38.4,0-69.6-31.2-69.6-69.6c0-33.7,24-62.4,57.2-68.4l12-2.2l0.7-12.2c2.9-53.3,46.9-95,100.2-95
	s97.3,41.7,100.2,95l0.7,12.2l12.1,2.2c33.1,6,57.2,34.7,57.2,68.4C355.5,278,324.3,309.2,286,309.2 M301.1,156
	c-3.3-61.1-53.7-109.6-115.6-109.6S73.2,94.9,69.9,156C30.2,163.2,0,197.8,0,239.6c0,46.9,38.1,85,85,85h201c46.9,0,85-38.1,85-85
	C371,197.8,340.8,163.2,301.1,156"/>
</svg>
