<svg xmlns="http://www.w3.org/2000/svg" xmlns:xlink="http://www.w3.org/1999/xlink" aria-hidden="true" role="img" id="footer-sample-full" width="1em" height="1em" preserveAspectRatio="xMidYMid meet" viewBox="0 0 24 24" class="iconify iconify--ci"><g fill="none"><path d="M14 22H4a1.934 1.934 0 0 1-2-2V10a1.934 1.934 0 0 1 2-2h4V4a1.934 1.934 0 0 1 2-2h10a1.934 1.934 0 0 1 2 2v10a1.935 1.935 0 0 1-2 2h-4v4a1.935 1.935 0 0 1-2 2zM4 10v10h10v-4h-4a1.935 1.935 0 0 1-2-2v-4H4zm6-6v10h10V4H10z" fill="currentColor"></path></g></svg>