<svg id="Calque_1" data-name="Calque 1" xmlns="http://www.w3.org/2000/svg" xmlns:xlink="http://www.w3.org/1999/xlink" viewBox="0 0 300 100"><defs><style>.cls-1{fill:url(#Dégradé_sans_nom_17);}</style><linearGradient id="Dégradé_sans_nom_17" x1="149.37" y1="22.33" x2="149.37" y2="74.3" gradientUnits="userSpaceOnUse"><stop offset="0" stop-color="#0f0f0f"/><stop offset="0.04" stop-color="#1b1b1b"/><stop offset="0.18" stop-color="#444"/><stop offset="0.31" stop-color="#616161"/><stop offset="0.42" stop-color="#747474"/><stop offset="0.49" stop-color="#7a7a7a"/><stop offset="0.58" stop-color="#6f6f6f"/><stop offset="0.73" stop-color="#525252"/><stop offset="0.93" stop-color="#232323"/><stop offset="1" stop-color="#0f0f0f"/></linearGradient></defs><path class="cls-1" d="M291.53,33.61h-2.64v-1a1.36,1.36,0,0,0-1.31-1.36l-3.41-.15v-.53a.56.56,0,0,0-.56-.57h-.79a.56.56,0,0,0-.56.57v.44l-20.16-.89a1.87,1.87,0,0,0-.65-.12h-6c-2.06,0-3.87,3.53-4.94,8.88H249c-.51,0-1,.78-1.37,2.1H239c-1-6.51-3-11-5.3-11h-6.1c-.64-1.65-1.4-2.62-2.2-2.62h-34.1c-1.14,0-2.21,1-3.11,2.62h-5.06c-1-3.55-2.32-5.68-3.74-5.68h-7.27c-1.41,0-2.71,2.13-3.73,5.68H154.87V28a1.37,1.37,0,0,0-1.37-1.37H62.22A1.37,1.37,0,0,0,60.85,28v2H57.74V28.36a1.65,1.65,0,0,0,1.62-1.65V25.16c0-1.88-4-3.41-9-3.41s-9,1.53-9,3.41v1.55a1.66,1.66,0,0,0,1.66,1.66h.64V30H32.27c-.9-2.15-2-3.38-3.09-3.38H23.23c-1.13,0-2.18,1.23-3.08,3.38H14.57c-2.25,0-4.21,4.21-5.23,10.42h0a2.69,2.69,0,0,0-2.67,2.33,63.41,63.41,0,0,0-.49,8,64.08,64.08,0,0,0,.33,6.53,2.69,2.69,0,0,0,2.68,2.41h.15c1,6.21,3,10.42,5.23,10.42h5.58c.9,2.14,2,3.38,3.08,3.38h5.95c1.13,0,2.19-1.24,3.09-3.38H60.85v2a1.37,1.37,0,0,0,1.37,1.37H89.43v1.89h10.78V73.48H107v1.89h15.21V73.48H153.5a1.37,1.37,0,0,0,1.37-1.37v-2H168.4c1,3.55,2.32,5.68,3.73,5.68h7.27c1.42,0,2.72-2.13,3.74-5.68h35.78v1.74h-2.49a.57.57,0,0,0-.57.57v4.48a.57.57,0,0,0,.57.57H229a.57.57,0,0,0,.57-.57V72.41a.57.57,0,0,0-.57-.57h-2.49V70.1h7.16c2.32,0,4.32-4.47,5.3-11h8.64c.39,1.31.86,2.09,1.37,2.09h1.53c1.07,5.36,2.88,8.89,4.94,8.89h6a2.07,2.07,0,0,0,.64-.12l20.17-.87v.42a.57.57,0,0,0,.56.57h.79a.57.57,0,0,0,.56-.57V69l3.41-.14a1.37,1.37,0,0,0,1.31-1.37V66.29h1.21a1,1,0,0,0,1-1l1.43-30.62A1,1,0,0,0,291.53,33.61Z"/></svg>