<svg id="Calque_1" data-name="Calque 1" xmlns="http://www.w3.org/2000/svg" viewBox="0 0 80 200"><path id="Tracé_1" data-name="Tracé 1" d="M27.59,4.65l-14.54,80L24.9,108.12,35.44,76.73l5.05-21.07L38,41.55V28.7l-2.1-9.48Z"/><path id="Tracé_2" data-name="Tracé 2" d="M28.94,4.65l8.29,13.83,11.69.63Z"/><path id="Tracé_3" data-name="Tracé 3" d="M38.49,20.85l2.27,1.26L54.4,25.75,49.59,20l-11.68-.44Z"/><g id="Groupe_2" data-name="Groupe 2"><g id="Groupe_1" data-name="Groupe 1"><path id="Tracé_4" data-name="Tracé 4" d="M39.23,22.67l.52,6.76v9l1.6,10.53,1.25,7L45.73,65S57.16,77.18,57.16,76.86s2.19-11.53,2.19-11.53L60.27,43,54.92,26.59,41.35,24Z"/><path id="Tracé_5" data-name="Tracé 5" d="M66.27,84.64,61.05,45l-.78,20.7Z"/><path id="Tracé_6" data-name="Tracé 6" d="M42.07,57.56l-2.85,12,.64,3.37,6.21,20.87L44.49,65.36Z"/><path id="Tracé_7" data-name="Tracé 7" d="M45.76,67.62l4.67,117,.49-.14h4.84l4.43-20.86-3.42-84.7Z"/><path id="Tracé_8" data-name="Tracé 8" d="M66.43,88.29,59.78,69.53l-1.51,8.94,3.31,74.32,5.88-53.67Z"/><path id="Tracé_9" data-name="Tracé 9" d="M32.91,152.26l-7.8-36.9-1.47-5.62L12.54,87.41l7.3,28.93L30.66,166.2l6.81,15.38-4.25-27.11Z"/><path id="Tracé_10" data-name="Tracé 10" d="M38.7,74l-1.23,1.7L26.06,109.6l8.57,42,14.5,31.17L45.55,95.38l-5.9-20.12Z"/><path id="Tracé_11" data-name="Tracé 11" d="M48.71,184,34.59,154.68,39,184.49l7.69,11.38,2.42-9Z"/><path id="Tracé_12" data-name="Tracé 12" d="M50.08,186.81l-2.53,9.06,8.22-10.43H51.34Z"/></g></g></svg>