<svg width="1280" height="720" viewBox="0 0 1280 720" fill="none" xmlns="http://www.w3.org/2000/svg">
    <path d="M343.5 75L386.368 149.25H300.632L343.5 75Z" fill="#C4C4C4"/>
    <path d="M1192.5 585L1235.37 659.25H1149.63L1192.5 585Z" fill="#C4C4C4"/>
    <path d="M957 313L1000.3 387.25H913.699L957 313Z" fill="#C4C4C4"/>
    <path d="M789 125L832.301 199.25H745.699L789 125Z" fill="#C4C4C4"/>
    <path d="M669 538L712.301 612.25H625.699L669 538Z" fill="#C4C4C4"/>
    <path d="M215.5 635L173.498 562.25L257.502 562.25L215.5 635Z" fill="#C4C4C4"/>
    <path d="M118.5 410L76.4978 337.25L160.502 337.25L118.5 410Z" fill="#C4C4C4"/>
    <path d="M1144.5 49L1186.5 121.75L1102.5 121.75L1144.5 49Z" fill="#C4C4C4"/>
</svg>
