<svg width="100" height="100" viewBox="0 0 100 100" fill="none" xmlns="http://www.w3.org/2000/svg">
<path d="M55.5796 7.40107C52.9524 8.34591 51.5268 9.12762 49.4156 10.7658C47.8339 11.9962 47.1687 12.37 46.5509 12.37C46.4355 12.37 46.0825 12.2952 45.7702 12.2069C44.9896 11.9826 43.1431 11.6495 42.1045 11.5475C40.5024 11.398 38.2147 11.5475 36.3411 11.9282C35.2481 12.1525 34.8001 12.1933 34.4064 12.0981C34.1891 12.0505 33.6732 11.7718 32.9129 11.3028C30.3265 9.68501 27.5975 8.46147 25.0044 7.75453L24.502 7.61859L24.5495 8.20996C24.8686 12.3224 25.8597 15.9387 27.2378 18.0187L27.5093 18.4266L27.3396 18.8684C27.0816 19.5549 26.7083 20.9552 26.5521 21.8525C26.4299 22.5118 26.4028 22.9469 26.396 24.0956C26.396 25.5435 26.4707 26.2504 26.7286 27.0933C26.9051 27.6779 27.0748 27.6303 24.8482 27.6099C22.6012 27.5827 20.1167 27.6779 17.8901 27.8682C16.4305 27.9974 14.0614 28.2693 14.0071 28.3169C13.9935 28.3305 14.0003 28.378 14.0206 28.4324C14.0478 28.5072 14.2039 28.5004 14.9574 28.4052C18.1888 27.977 23.1986 27.7187 25.819 27.8342L26.9526 27.8818L27.197 28.4732C27.3328 28.7927 27.5704 29.2957 27.7401 29.5812L28.032 30.1046L27.7876 30.1386C27.6519 30.159 27.1631 30.227 26.6947 30.2813C23.2122 30.7232 19.3496 31.5253 16.4713 32.4225C15.1543 32.8236 14.8828 32.9391 14.8828 33.0683C14.8828 33.1227 14.8896 33.1703 14.9031 33.1703C14.9167 33.1703 15.2901 33.0479 15.7313 32.8984C17.5371 32.2866 19.5736 31.7564 21.8409 31.3078C23.7146 30.9339 24.6446 30.7911 27.8895 30.3493L28.1678 30.3085L28.5615 30.8319C28.7719 31.1174 29.1589 31.5729 29.4169 31.8448L29.8853 32.3342L29.0842 32.6265C27.2853 33.2858 24.6853 34.5094 23.0968 35.4474C21.8817 36.1611 20.5851 37.0448 20.5851 37.1536C20.5851 37.208 20.6122 37.2487 20.6462 37.2487C20.6733 37.2487 21.1146 36.9768 21.6101 36.6438C23.9114 35.1143 26.6472 33.748 29.4576 32.7216L30.0889 32.4973L30.7202 33.1363C32.173 34.5977 32.6685 35.7193 32.6685 37.5682C32.6685 39.3356 32.3087 41.266 31.2837 44.9978C30.8085 46.7244 30.4419 48.2606 30.2247 49.4298C29.1589 55.1057 29.4915 59.9863 31.304 65.4582C31.9082 67.2663 32.3563 68.3879 33.422 70.7738C35.2821 74.9271 35.5265 75.7156 35.8252 78.5637C35.9745 79.9572 36.0695 83.2064 36.0492 85.8506L36.0288 88.1957L35.4314 88.2433C34.6915 88.2977 33.8565 88.4608 33.4628 88.6308C33.0147 88.8211 32.7093 89.127 32.492 89.6028C32.3155 89.9835 32.2952 90.1058 32.2952 90.6768C32.2952 91.1798 32.3223 91.377 32.4241 91.5537C32.879 92.3898 34.1688 92.886 36.5719 93.1511C45.4648 94.1231 54.2422 94.2591 62.8093 93.5657C67.4526 93.1851 73.3857 92.417 74.2139 92.0839C76.583 91.1254 78.7621 87.0742 80.4932 80.3855C81.749 75.5457 82.8963 68.7414 83.0117 65.4242C83.1746 61.0059 81.8848 56.7575 79.1491 52.645C77.7438 50.5378 76.7324 49.355 73.6708 46.2554C70.4327 42.9722 69.3873 41.7555 68.2061 39.8997C67.2353 38.3771 66.3528 36.2495 66.0949 34.822C65.8573 33.4761 65.9048 31.6952 66.2171 30.2473C66.5361 28.7451 67.2014 27.2225 67.9956 26.1621C69.3737 24.3336 71.7564 22.8585 74.2139 22.3215C74.6619 22.2195 75.0624 22.1924 75.9788 22.1991C77.0446 22.1991 77.2347 22.2195 77.8389 22.3827C79.3867 22.7973 80.2759 23.4703 80.4592 24.3675C80.6357 25.2104 80.0859 26.2912 79.1694 26.903C78.253 27.5216 77.2822 27.6439 76.0196 27.304C75.1303 27.0661 74.7773 27.0253 74.4175 27.1205C73.9084 27.2497 73.6368 27.474 73.3992 27.9634C73.1956 28.378 73.182 28.446 73.2092 28.9422C73.2499 29.6016 73.4535 30.0162 74.017 30.56C74.499 31.0155 75.4358 31.4777 76.1961 31.634C76.8681 31.77 77.9136 31.77 78.6263 31.634C80.4389 31.2942 82.5704 29.9754 83.6294 28.548C85.0482 26.6379 85.3944 23.9733 84.5323 21.6621C84.0571 20.3978 82.4211 18.7324 80.9684 18.0391C79.5699 17.3729 76.9428 17.0875 74.689 17.3662C70.9622 17.8284 67.6223 19.3918 65.1852 21.8117C63.5356 23.4567 62.4359 25.156 61.8181 27.0389L61.567 27.8071L61.1868 27.7663C60.2704 27.6779 57.8876 27.5963 56.0751 27.5963C54.2354 27.5963 54.1132 27.5895 54.1472 27.474C54.4459 26.4544 54.5545 25.6115 54.5545 24.3675C54.5545 22.709 54.3305 21.5806 53.6788 19.9492L53.3801 19.2083L53.7127 18.7596C55.4234 16.4349 56.4688 13.8994 56.8083 11.262C56.9576 10.0657 56.8897 6.99322 56.7064 7.00002C56.6861 7.00681 56.1769 7.18355 55.5796 7.40107ZM60.3926 27.9362C60.9899 27.977 61.4855 28.011 61.4923 28.0246C61.4991 28.0314 61.4516 28.3101 61.3769 28.6499C61.2072 29.4588 61.0443 30.7232 61.0443 31.2126C61.0443 31.4301 61.0239 31.6068 61.0035 31.6068C60.9832 31.6068 60.5759 31.5185 60.1074 31.4097C58.4035 31.0155 56.0819 30.6008 54.1879 30.3493C53.7195 30.2881 53.2715 30.227 53.19 30.2066C53.0475 30.1794 53.0542 30.1522 53.4072 29.4113C53.6041 28.9966 53.8213 28.4732 53.8892 28.2625C54.0114 27.9022 54.0318 27.875 54.2558 27.841C54.6427 27.7935 59.2249 27.8614 60.3926 27.9362ZM56.2923 30.8999C57.4667 31.0902 58.9398 31.3825 60.8134 31.7904C60.9492 31.8244 60.956 31.8787 61.0035 32.9188C61.1868 37.14 62.2051 40.0085 64.9612 44.1346C66.6787 46.704 68.8985 49.355 71.9058 52.4411C73.759 54.3376 74.2342 54.8678 74.8791 55.731C76.4948 57.8722 77.5063 60.163 77.9543 62.6577C78.4431 65.4174 78.1987 69.761 77.2958 74.2949C76.2097 79.7601 74.0645 85.1437 72.4828 86.34C71.865 86.8091 71.1523 86.9042 70.5481 86.5983C69.6927 86.1565 69.5027 85.1029 69.7946 82.4859C69.876 81.7721 70.0457 80.3243 70.1747 79.2571C70.5956 75.702 70.6839 74.5668 70.6839 72.7655C70.6839 68.4083 69.7606 64.8193 67.4661 60.231C65.1309 55.5611 63.4474 53.2772 59.4625 49.3754C57.4735 47.4245 56.5707 46.6088 54.5681 44.9367C53.5973 44.121 52.5519 43.2305 52.26 42.9518C50.6308 41.4292 49.8229 39.4715 49.7279 36.8409C49.7007 36.066 49.7143 35.7601 49.8026 35.4134C49.9451 34.8288 50.2981 34.1491 50.8073 33.4558C51.1738 32.9459 51.2417 32.8916 51.3979 32.9188C51.7101 32.9867 53.7127 33.8432 54.9007 34.4278C56.3059 35.1143 57.4396 35.7601 58.7294 36.6166C59.4558 37.0992 59.7205 37.2419 59.7748 37.1876C59.8291 37.1332 59.8291 37.0924 59.7884 37.0584C57.3174 35.3454 54.2965 33.7412 51.8323 32.8372C51.5608 32.7352 51.425 32.6537 51.4522 32.5993C51.4793 32.5585 51.7305 32.1846 52.0224 31.7768C52.3075 31.3621 52.6198 30.8863 52.7216 30.7164L52.8981 30.4037L53.8689 30.5328C54.3984 30.6008 55.4913 30.764 56.2923 30.8999Z" fill="black"/>
</svg>
