<?xml version="1.0" encoding="utf-8"?>
<!-- Generator: Adobe Illustrator 25.4.1, SVG Export Plug-In . SVG Version: 6.00 Build 0)  -->
<svg version="1.1" id="Calque_1" xmlns="http://www.w3.org/2000/svg" xmlns:xlink="http://www.w3.org/1999/xlink" x="0px" y="0px"
	 viewBox="0 0 12 12" style="enable-background:new 0 0 12 12;" xml:space="preserve">
<style type="text/css">
	.st0{fill:#FFC639;}
</style>
<polygon class="st0" points="6,0.4 6.4,2 7.2,0.5 7.2,2.2 8.3,0.9 8,2.5 9.3,1.5 8.7,3 10.1,2.3 9.2,3.6 10.8,3.2 9.7,4.4 11.3,4.3 
	9.9,5.2 11.6,5.4 10,6 11.6,6.6 9.9,6.8 11.3,7.7 9.7,7.6 10.8,8.8 9.2,8.4 10.1,9.7 8.7,9 9.3,10.5 8,9.5 8.3,11.1 7.2,9.8 
	7.2,11.5 6.4,10 6,11.6 5.6,10 4.8,11.5 4.8,9.8 3.7,11.1 4,9.5 2.7,10.5 3.3,9 1.9,9.7 2.8,8.4 1.2,8.8 2.3,7.6 0.7,7.7 2.1,6.8 
	0.4,6.6 2,6 0.4,5.4 2.1,5.2 0.7,4.3 2.3,4.4 1.2,3.2 2.8,3.6 1.9,2.3 3.3,3 2.7,1.5 4,2.5 3.7,0.9 4.8,2.2 4.8,0.5 5.6,2 "/>
</svg>
