<svg width="696" height="108" viewBox="0 0 696 108" fill="none" xmlns="http://www.w3.org/2000/svg">
<path d="M147.909 3.60724L2.86102e-06 72C-0.548918 72.2599 -0.115114 73.0951 -0.115114 73.5L-0.999997 107.814C-0.999997 108.562 0.0597481 109.17 1.38033 109.182H697.4C698.75 109.194 697.4 114.691 697.4 113.927V1.37059C697.4 0.0881741 694.561 -0.489229 693.118 0.499627L611.32 56.5364C610.384 57.1781 608.66 57.2019 607.669 56.5868L522.295 3.59208C521.327 2.99123 519.652 2.99771 518.698 3.606L435.93 56.4173C434.874 57.0905 432.977 57.014 432.102 56.2628L380.288 11.813C379.504 11.1408 377.869 10.995 376.758 11.4983L276.132 57.0818C275.263 57.4754 274.032 57.4826 273.149 57.0992L148.842 3.13488C147.943 2.74479 148.777 3.19599 147.909 3.60724Z" fill="#1149F0"/>
<path d="M2.86102e-06 81V72L147.909 3.60724L2.86102e-06 81Z" fill="#1E3781"/>
<path d="M372.985 34.5062L379.03 10.9104L433.233 56.962L412.68 61.6356L372.985 34.5062Z" fill="#1E3781"/>
<path d="M531.364 20.2497L521.087 3.60726L608.941 58.094L586.776 62.7676L568.037 54.3324L555.947 37.918L531.364 20.2497Z" fill="#1E3781"/>
</svg>
