<svg width="179" height="179" viewBox="0 0 179 179" fill="none" xmlns="http://www.w3.org/2000/svg">
<path d="M179 89.5C179 138.929 138.929 179 89.5 179C40.0705 179 0 138.929 0 89.5C0 40.0705 40.0705 0 89.5 0C138.929 0 179 40.0705 179 89.5Z" fill="#E7FF87" fill-opacity="0.42"/>
<path d="M164.222 89.6192C164.222 130.821 130.821 164.222 89.6192 164.222C48.417 164.222 15.016 130.821 15.016 89.6192C15.016 48.417 48.417 15.016 89.6192 15.016C130.821 15.016 164.222 48.417 164.222 89.6192Z" fill="#E7FF87" fill-opacity="0.38"/>
<path d="M150.16 89.3808C150.16 122.816 123.055 149.921 89.6192 149.921C56.1835 149.921 29.0786 122.816 29.0786 89.3808C29.0786 55.9452 56.1835 28.8402 89.6192 28.8402C123.055 28.8402 150.16 55.9452 150.16 89.3808Z" fill="#E7FF87"/>
</svg>
